<mxfile host="Electron" modified="2024-04-26T19:06:46.380Z" agent="Mozilla/5.0 (Windows NT 10.0; Win64; x64) AppleWebKit/537.36 (KHTML, like Gecko) draw.io/24.2.5 Chrome/120.0.6099.109 Electron/28.1.0 Safari/537.36" etag="eg2wyHjk0cR1IM4a1Liy" version="24.2.5" type="device">
  <diagram name="Page-1" id="Wud9rcYHppizJK5f9QVb">
    <mxGraphModel dx="1195" dy="697" grid="1" gridSize="10" guides="1" tooltips="1" connect="1" arrows="1" fold="1" page="1" pageScale="1" pageWidth="850" pageHeight="1100" math="0" shadow="0">
      <root>
        <mxCell id="0" />
        <mxCell id="1" parent="0" />
        <mxCell id="U4qR48-MR9zNBadxlRmR-1" value="&lt;b style=&quot;mso-bidi-font-weight:normal&quot;&gt;&lt;span style=&quot;font-family: Arial, sans-serif; position: relative; top: 0.5pt;&quot;&gt;&lt;font style=&quot;font-size: 20px;&quot;&gt;Major airlines companies&lt;/font&gt;&lt;/span&gt;&lt;/b&gt;" style="text;whiteSpace=wrap;html=1;fixedWidth=0;" vertex="1" parent="1">
          <mxGeometry x="303" y="40" width="245" height="40" as="geometry" />
        </mxCell>
        <mxCell id="U4qR48-MR9zNBadxlRmR-2" value="routes" style="rounded=0;whiteSpace=wrap;html=1;" vertex="1" parent="1">
          <mxGeometry x="618" y="590" width="80" height="40" as="geometry" />
        </mxCell>
        <mxCell id="U4qR48-MR9zNBadxlRmR-3" value="&lt;span style=&quot;font-family: Arial, sans-serif; position: relative; top: 0.5pt;&quot;&gt;&lt;font style=&quot;font-size: 12px;&quot;&gt;aircraft&lt;/font&gt;&lt;/span&gt;" style="rounded=0;whiteSpace=wrap;html=1;" vertex="1" parent="1">
          <mxGeometry x="119.15" y="590" width="80" height="40" as="geometry" />
        </mxCell>
        <mxCell id="U4qR48-MR9zNBadxlRmR-4" value="&lt;span style=&quot;font-family: Arial, sans-serif; position: relative; top: 0.5pt;&quot;&gt;&lt;font style=&quot;font-size: 12px;&quot;&gt;employee&lt;/font&gt;&lt;/span&gt;" style="rounded=0;whiteSpace=wrap;html=1;" vertex="1" parent="1">
          <mxGeometry x="640" y="235" width="80" height="40" as="geometry" />
        </mxCell>
        <mxCell id="U4qR48-MR9zNBadxlRmR-5" value="&lt;span style=&quot;font-family: Arial, sans-serif; position: relative; top: 0.5pt;&quot;&gt;&lt;font style=&quot;font-size: 12px;&quot;&gt;airline&lt;/font&gt;&lt;/span&gt;" style="rounded=0;whiteSpace=wrap;html=1;" vertex="1" parent="1">
          <mxGeometry x="130" y="235" width="80" height="40" as="geometry" />
        </mxCell>
        <mxCell id="U4qR48-MR9zNBadxlRmR-6" value="&lt;span style=&quot;font-family: Arial, sans-serif; position: relative; top: 0.5pt;&quot;&gt;&lt;font style=&quot;font-size: 12px;&quot;&gt;name&lt;br/&gt;of the contact person&lt;/font&gt;&lt;/span&gt;" style="ellipse;whiteSpace=wrap;html=1;" vertex="1" parent="1">
          <mxGeometry x="10" y="235" width="90" height="60" as="geometry" />
        </mxCell>
        <mxCell id="U4qR48-MR9zNBadxlRmR-7" value="&lt;span style=&quot;font-family: Arial, sans-serif; position: relative; top: 0.5pt;&quot;&gt;&lt;font style=&quot;font-size: 12px;&quot;&gt;identification&lt;br&gt;number&lt;/font&gt;&lt;/span&gt;&lt;hr&gt;" style="ellipse;whiteSpace=wrap;html=1;" vertex="1" parent="1">
          <mxGeometry x="10" y="140" width="100" height="70" as="geometry" />
        </mxCell>
        <mxCell id="U4qR48-MR9zNBadxlRmR-8" value="&lt;span style=&quot;font-family: Arial, sans-serif; position: relative; top: 0.5pt;&quot;&gt;&lt;font style=&quot;font-size: 12px;&quot;&gt;name&lt;/font&gt;&lt;/span&gt;" style="ellipse;whiteSpace=wrap;html=1;" vertex="1" parent="1">
          <mxGeometry x="140" y="150" width="80" height="50" as="geometry" />
        </mxCell>
        <mxCell id="U4qR48-MR9zNBadxlRmR-9" value="&lt;span style=&quot;font-family: Arial, sans-serif; position: relative; top: 0.5pt;&quot;&gt;&lt;font style=&quot;font-size: 12px;&quot;&gt;address&lt;/font&gt;&lt;/span&gt;" style="ellipse;whiteSpace=wrap;html=1;" vertex="1" parent="1">
          <mxGeometry x="240" y="150" width="80" height="50" as="geometry" />
        </mxCell>
        <mxCell id="U4qR48-MR9zNBadxlRmR-10" value="&lt;span style=&quot;font-family: Arial, sans-serif; position: relative; top: 0.5pt;&quot;&gt;&lt;font style=&quot;font-size: 12px;&quot;&gt;telephone&lt;br/&gt;numbers&lt;/font&gt;&lt;/span&gt;" style="ellipse;shape=doubleEllipse;whiteSpace=wrap;html=1;" vertex="1" parent="1">
          <mxGeometry x="70" y="310" width="100" height="60" as="geometry" />
        </mxCell>
        <mxCell id="U4qR48-MR9zNBadxlRmR-11" value="" style="endArrow=none;html=1;rounded=0;exitX=0.138;exitY=1;exitDx=0;exitDy=0;exitPerimeter=0;entryX=0.5;entryY=0;entryDx=0;entryDy=0;" edge="1" parent="1" source="U4qR48-MR9zNBadxlRmR-5" target="U4qR48-MR9zNBadxlRmR-10">
          <mxGeometry width="50" height="50" relative="1" as="geometry">
            <mxPoint x="400" y="350" as="sourcePoint" />
            <mxPoint x="450" y="300" as="targetPoint" />
          </mxGeometry>
        </mxCell>
        <mxCell id="U4qR48-MR9zNBadxlRmR-12" value="" style="endArrow=none;html=1;rounded=0;exitX=0;exitY=0.5;exitDx=0;exitDy=0;entryX=1;entryY=0.5;entryDx=0;entryDy=0;" edge="1" parent="1" source="U4qR48-MR9zNBadxlRmR-5" target="U4qR48-MR9zNBadxlRmR-6">
          <mxGeometry width="50" height="50" relative="1" as="geometry">
            <mxPoint x="400" y="350" as="sourcePoint" />
            <mxPoint x="450" y="300" as="targetPoint" />
          </mxGeometry>
        </mxCell>
        <mxCell id="U4qR48-MR9zNBadxlRmR-13" value="" style="endArrow=none;html=1;rounded=0;entryX=1;entryY=1;entryDx=0;entryDy=0;exitX=0;exitY=0;exitDx=0;exitDy=0;" edge="1" parent="1" source="U4qR48-MR9zNBadxlRmR-5" target="U4qR48-MR9zNBadxlRmR-7">
          <mxGeometry width="50" height="50" relative="1" as="geometry">
            <mxPoint x="140" y="240" as="sourcePoint" />
            <mxPoint x="450" y="300" as="targetPoint" />
          </mxGeometry>
        </mxCell>
        <mxCell id="U4qR48-MR9zNBadxlRmR-14" value="" style="endArrow=none;html=1;rounded=0;exitX=0.613;exitY=0;exitDx=0;exitDy=0;exitPerimeter=0;entryX=0.5;entryY=1;entryDx=0;entryDy=0;" edge="1" parent="1" source="U4qR48-MR9zNBadxlRmR-5" target="U4qR48-MR9zNBadxlRmR-8">
          <mxGeometry width="50" height="50" relative="1" as="geometry">
            <mxPoint x="400" y="350" as="sourcePoint" />
            <mxPoint x="450" y="300" as="targetPoint" />
          </mxGeometry>
        </mxCell>
        <mxCell id="U4qR48-MR9zNBadxlRmR-15" value="" style="endArrow=none;html=1;rounded=0;entryX=1;entryY=0;entryDx=0;entryDy=0;exitX=0;exitY=1;exitDx=0;exitDy=0;" edge="1" parent="1" source="U4qR48-MR9zNBadxlRmR-9" target="U4qR48-MR9zNBadxlRmR-5">
          <mxGeometry width="50" height="50" relative="1" as="geometry">
            <mxPoint x="400" y="350" as="sourcePoint" />
            <mxPoint x="450" y="300" as="targetPoint" />
          </mxGeometry>
        </mxCell>
        <mxCell id="U4qR48-MR9zNBadxlRmR-16" value="&lt;span style=&quot;font-family: Arial, sans-serif; position: relative; top: 0.5pt;&quot;&gt;&lt;font style=&quot;font-size: 12px;&quot;&gt;identification&lt;br/&gt;number&lt;/font&gt;&lt;/span&gt;&lt;hr&gt;" style="ellipse;whiteSpace=wrap;html=1;" vertex="1" parent="1">
          <mxGeometry x="69.15" y="670" width="100" height="60" as="geometry" />
        </mxCell>
        <mxCell id="U4qR48-MR9zNBadxlRmR-17" value="&lt;span style=&quot;font-family: Arial, sans-serif; position: relative; top: 0.5pt;&quot;&gt;&lt;font style=&quot;font-size: 12px;&quot;&gt;qualifications&lt;/font&gt;&lt;/span&gt;" style="ellipse;whiteSpace=wrap;html=1;" vertex="1" parent="1">
          <mxGeometry x="548" y="150" width="70" height="50" as="geometry" />
        </mxCell>
        <mxCell id="U4qR48-MR9zNBadxlRmR-18" value="&lt;span style=&quot;font-family: Arial, sans-serif; position: relative; top: 0.5pt;&quot;&gt;&lt;font style=&quot;font-size: 12px;&quot;&gt;position&lt;br/&gt;with the company&lt;/font&gt;&lt;/span&gt;" style="ellipse;whiteSpace=wrap;html=1;" vertex="1" parent="1">
          <mxGeometry x="740" y="305" width="80" height="60" as="geometry" />
        </mxCell>
        <mxCell id="U4qR48-MR9zNBadxlRmR-19" value="&lt;span style=&quot;font-family: Arial, sans-serif; position: relative; top: 0.5pt;&quot;&gt;&lt;font style=&quot;font-size: 12px;&quot;&gt;gender&lt;/font&gt;&lt;/span&gt;" style="ellipse;whiteSpace=wrap;html=1;" vertex="1" parent="1">
          <mxGeometry x="548" y="310" width="70" height="50" as="geometry" />
        </mxCell>
        <mxCell id="U4qR48-MR9zNBadxlRmR-20" value="&lt;span style=&quot;font-family: Arial, sans-serif; position: relative; top: 0.5pt;&quot;&gt;&lt;font style=&quot;font-size: 12px;&quot;&gt;year&lt;/font&gt;&lt;/span&gt;" style="ellipse;whiteSpace=wrap;html=1;" vertex="1" parent="1">
          <mxGeometry x="730" y="390" width="60" height="40" as="geometry" />
        </mxCell>
        <mxCell id="U4qR48-MR9zNBadxlRmR-21" value="&lt;span style=&quot;font-family: Arial, sans-serif; position: relative; top: 0.5pt;&quot;&gt;&lt;font style=&quot;font-size: 12px;&quot;&gt;month&lt;/font&gt;&lt;/span&gt;" style="ellipse;whiteSpace=wrap;html=1;" vertex="1" parent="1">
          <mxGeometry x="650" y="390" width="60" height="40" as="geometry" />
        </mxCell>
        <mxCell id="U4qR48-MR9zNBadxlRmR-22" value="&lt;span style=&quot;font-family: Arial, sans-serif; position: relative; top: 0.5pt;&quot;&gt;&lt;font style=&quot;font-size: 12px;&quot;&gt;day&lt;/font&gt;&lt;/span&gt;" style="ellipse;whiteSpace=wrap;html=1;" vertex="1" parent="1">
          <mxGeometry x="570" y="390" width="60" height="40" as="geometry" />
        </mxCell>
        <mxCell id="U4qR48-MR9zNBadxlRmR-23" value="&lt;span style=&quot;font-family: Arial, sans-serif; position: relative; top: 0.5pt;&quot;&gt;&lt;font style=&quot;font-size: 12px;&quot;&gt;birthday&lt;/font&gt;&lt;/span&gt;" style="ellipse;whiteSpace=wrap;html=1;" vertex="1" parent="1">
          <mxGeometry x="645" y="310" width="70" height="50" as="geometry" />
        </mxCell>
        <mxCell id="U4qR48-MR9zNBadxlRmR-24" value="&lt;span style=&quot;font-family: Arial, sans-serif; position: relative; top: 0.5pt;&quot;&gt;&lt;font style=&quot;font-size: 12px;&quot;&gt;address&lt;/font&gt;&lt;/span&gt;" style="ellipse;whiteSpace=wrap;html=1;" vertex="1" parent="1">
          <mxGeometry x="760" y="230" width="80" height="50" as="geometry" />
        </mxCell>
        <mxCell id="U4qR48-MR9zNBadxlRmR-25" value="&lt;span style=&quot;font-family: Arial, sans-serif; position: relative; top: 0.5pt;&quot;&gt;&lt;font style=&quot;font-size: 12px;&quot;&gt;name&lt;/font&gt;&lt;/span&gt;" style="ellipse;whiteSpace=wrap;html=1;" vertex="1" parent="1">
          <mxGeometry x="750" y="150" width="70" height="50" as="geometry" />
        </mxCell>
        <mxCell id="U4qR48-MR9zNBadxlRmR-26" value="&lt;span style=&quot;font-family: Arial, sans-serif; position: relative; top: 0.5pt;&quot;&gt;&lt;font style=&quot;font-size: 12px;&quot;&gt;identification&lt;br&gt;number&lt;/font&gt;&lt;/span&gt;&lt;hr&gt;" style="ellipse;whiteSpace=wrap;html=1;" vertex="1" parent="1">
          <mxGeometry x="630" y="145" width="100" height="60" as="geometry" />
        </mxCell>
        <mxCell id="U4qR48-MR9zNBadxlRmR-27" value="" style="endArrow=none;html=1;rounded=0;exitX=0.5;exitY=1;exitDx=0;exitDy=0;entryX=0.5;entryY=0;entryDx=0;entryDy=0;" edge="1" parent="1" source="U4qR48-MR9zNBadxlRmR-23" target="U4qR48-MR9zNBadxlRmR-20">
          <mxGeometry width="50" height="50" relative="1" as="geometry">
            <mxPoint x="400" y="340" as="sourcePoint" />
            <mxPoint x="450" y="290" as="targetPoint" />
          </mxGeometry>
        </mxCell>
        <mxCell id="U4qR48-MR9zNBadxlRmR-28" value="" style="endArrow=none;html=1;rounded=0;entryX=0.5;entryY=1;entryDx=0;entryDy=0;exitX=0.5;exitY=0;exitDx=0;exitDy=0;" edge="1" parent="1" source="U4qR48-MR9zNBadxlRmR-21" target="U4qR48-MR9zNBadxlRmR-23">
          <mxGeometry width="50" height="50" relative="1" as="geometry">
            <mxPoint x="400" y="340" as="sourcePoint" />
            <mxPoint x="450" y="290" as="targetPoint" />
          </mxGeometry>
        </mxCell>
        <mxCell id="U4qR48-MR9zNBadxlRmR-29" value="" style="endArrow=none;html=1;rounded=0;entryX=0.5;entryY=1;entryDx=0;entryDy=0;exitX=0.5;exitY=0;exitDx=0;exitDy=0;" edge="1" parent="1" source="U4qR48-MR9zNBadxlRmR-22" target="U4qR48-MR9zNBadxlRmR-23">
          <mxGeometry width="50" height="50" relative="1" as="geometry">
            <mxPoint x="400" y="340" as="sourcePoint" />
            <mxPoint x="450" y="290" as="targetPoint" />
          </mxGeometry>
        </mxCell>
        <mxCell id="U4qR48-MR9zNBadxlRmR-30" value="" style="endArrow=none;html=1;rounded=0;entryX=0;entryY=1;entryDx=0;entryDy=0;exitX=0.5;exitY=0;exitDx=0;exitDy=0;" edge="1" parent="1" source="U4qR48-MR9zNBadxlRmR-19" target="U4qR48-MR9zNBadxlRmR-4">
          <mxGeometry width="50" height="50" relative="1" as="geometry">
            <mxPoint x="400" y="340" as="sourcePoint" />
            <mxPoint x="450" y="290" as="targetPoint" />
          </mxGeometry>
        </mxCell>
        <mxCell id="U4qR48-MR9zNBadxlRmR-31" value="" style="endArrow=none;html=1;rounded=0;entryX=0.5;entryY=1;entryDx=0;entryDy=0;exitX=0.5;exitY=0;exitDx=0;exitDy=0;" edge="1" parent="1" source="U4qR48-MR9zNBadxlRmR-23" target="U4qR48-MR9zNBadxlRmR-4">
          <mxGeometry width="50" height="50" relative="1" as="geometry">
            <mxPoint x="400" y="340" as="sourcePoint" />
            <mxPoint x="450" y="290" as="targetPoint" />
          </mxGeometry>
        </mxCell>
        <mxCell id="U4qR48-MR9zNBadxlRmR-32" value="" style="endArrow=none;html=1;rounded=0;exitX=1;exitY=1;exitDx=0;exitDy=0;entryX=0.25;entryY=0.083;entryDx=0;entryDy=0;entryPerimeter=0;" edge="1" parent="1" source="U4qR48-MR9zNBadxlRmR-4" target="U4qR48-MR9zNBadxlRmR-18">
          <mxGeometry width="50" height="50" relative="1" as="geometry">
            <mxPoint x="400" y="340" as="sourcePoint" />
            <mxPoint x="450" y="290" as="targetPoint" />
          </mxGeometry>
        </mxCell>
        <mxCell id="U4qR48-MR9zNBadxlRmR-33" value="" style="endArrow=none;html=1;rounded=0;exitX=1;exitY=0.5;exitDx=0;exitDy=0;entryX=0;entryY=0.5;entryDx=0;entryDy=0;" edge="1" parent="1" source="U4qR48-MR9zNBadxlRmR-4" target="U4qR48-MR9zNBadxlRmR-24">
          <mxGeometry width="50" height="50" relative="1" as="geometry">
            <mxPoint x="400" y="340" as="sourcePoint" />
            <mxPoint x="450" y="290" as="targetPoint" />
          </mxGeometry>
        </mxCell>
        <mxCell id="U4qR48-MR9zNBadxlRmR-34" value="" style="endArrow=none;html=1;rounded=0;entryX=0;entryY=1;entryDx=0;entryDy=0;exitX=0.75;exitY=0;exitDx=0;exitDy=0;" edge="1" parent="1" source="U4qR48-MR9zNBadxlRmR-4" target="U4qR48-MR9zNBadxlRmR-25">
          <mxGeometry width="50" height="50" relative="1" as="geometry">
            <mxPoint x="710" y="220" as="sourcePoint" />
            <mxPoint x="450" y="290" as="targetPoint" />
          </mxGeometry>
        </mxCell>
        <mxCell id="U4qR48-MR9zNBadxlRmR-35" value="" style="endArrow=none;html=1;rounded=0;exitX=0.388;exitY=0.025;exitDx=0;exitDy=0;exitPerimeter=0;entryX=0.41;entryY=0.983;entryDx=0;entryDy=0;entryPerimeter=0;" edge="1" parent="1" source="U4qR48-MR9zNBadxlRmR-4" target="U4qR48-MR9zNBadxlRmR-26">
          <mxGeometry width="50" height="50" relative="1" as="geometry">
            <mxPoint x="400" y="340" as="sourcePoint" />
            <mxPoint x="450" y="290" as="targetPoint" />
          </mxGeometry>
        </mxCell>
        <mxCell id="U4qR48-MR9zNBadxlRmR-36" value="" style="endArrow=none;html=1;rounded=0;entryX=0;entryY=0;entryDx=0;entryDy=0;exitX=0.714;exitY=0.96;exitDx=0;exitDy=0;exitPerimeter=0;" edge="1" parent="1" source="U4qR48-MR9zNBadxlRmR-17" target="U4qR48-MR9zNBadxlRmR-4">
          <mxGeometry width="50" height="50" relative="1" as="geometry">
            <mxPoint x="600" y="190" as="sourcePoint" />
            <mxPoint x="450" y="290" as="targetPoint" />
          </mxGeometry>
        </mxCell>
        <mxCell id="U4qR48-MR9zNBadxlRmR-38" value="&lt;p style=&quot;line-height: 80%; font-size: 8px;&quot;&gt;&lt;span style=&quot;font-family: Arial, sans-serif; position: relative; top: 0.5pt;&quot;&gt;&lt;font style=&quot;font-size: 8px;&quot;&gt;number&lt;br&gt;of passengers&lt;/font&gt;&lt;/span&gt;&lt;/p&gt;" style="ellipse;whiteSpace=wrap;html=1;" vertex="1" parent="1">
          <mxGeometry x="488" y="520" width="70" height="40" as="geometry" />
        </mxCell>
        <mxCell id="U4qR48-MR9zNBadxlRmR-39" value="&lt;span style=&quot;font-family: Arial, sans-serif; position: relative; top: 0.5pt;&quot;&gt;&lt;font style=&quot;font-size: 12px;&quot;&gt;capacity&lt;/font&gt;&lt;/span&gt;" style="ellipse;whiteSpace=wrap;html=1;" vertex="1" parent="1">
          <mxGeometry x="9.149999999999999" y="620" width="70" height="50" as="geometry" />
        </mxCell>
        <mxCell id="U4qR48-MR9zNBadxlRmR-40" value="&lt;span style=&quot;font-family: Arial, sans-serif; position: relative; top: 0.5pt;&quot;&gt;&lt;font style=&quot;font-size: 12px;&quot;&gt;model&amp;nbsp;&lt;/font&gt;&lt;/span&gt;" style="ellipse;whiteSpace=wrap;html=1;" vertex="1" parent="1">
          <mxGeometry x="21.900000000000002" y="550" width="64.5" height="50" as="geometry" />
        </mxCell>
        <mxCell id="U4qR48-MR9zNBadxlRmR-41" value="" style="endArrow=none;html=1;rounded=0;exitX=0.5;exitY=0;exitDx=0;exitDy=0;" edge="1" parent="1" source="U4qR48-MR9zNBadxlRmR-16" target="U4qR48-MR9zNBadxlRmR-3">
          <mxGeometry width="50" height="50" relative="1" as="geometry">
            <mxPoint x="399.15" y="410" as="sourcePoint" />
            <mxPoint x="449.15" y="360" as="targetPoint" />
          </mxGeometry>
        </mxCell>
        <mxCell id="U4qR48-MR9zNBadxlRmR-42" value="" style="endArrow=none;html=1;rounded=0;exitX=1;exitY=0.5;exitDx=0;exitDy=0;entryX=0;entryY=1;entryDx=0;entryDy=0;" edge="1" parent="1" source="U4qR48-MR9zNBadxlRmR-39" target="U4qR48-MR9zNBadxlRmR-3">
          <mxGeometry width="50" height="50" relative="1" as="geometry">
            <mxPoint x="399.15" y="410" as="sourcePoint" />
            <mxPoint x="449.15" y="360" as="targetPoint" />
          </mxGeometry>
        </mxCell>
        <mxCell id="U4qR48-MR9zNBadxlRmR-43" value="" style="endArrow=none;html=1;rounded=0;exitX=0;exitY=0.5;exitDx=0;exitDy=0;entryX=1;entryY=1;entryDx=0;entryDy=0;" edge="1" parent="1" source="U4qR48-MR9zNBadxlRmR-3" target="U4qR48-MR9zNBadxlRmR-40">
          <mxGeometry width="50" height="50" relative="1" as="geometry">
            <mxPoint x="399.15" y="410" as="sourcePoint" />
            <mxPoint x="449.15" y="360" as="targetPoint" />
          </mxGeometry>
        </mxCell>
        <mxCell id="U4qR48-MR9zNBadxlRmR-44" value="own" style="rhombus;whiteSpace=wrap;html=1;" vertex="1" parent="1">
          <mxGeometry x="170" y="390" width="60" height="60" as="geometry" />
        </mxCell>
        <mxCell id="U4qR48-MR9zNBadxlRmR-45" value="" style="endArrow=none;html=1;rounded=0;exitX=0.5;exitY=0;exitDx=0;exitDy=0;entryX=1;entryY=1;entryDx=0;entryDy=0;" edge="1" parent="1" source="U4qR48-MR9zNBadxlRmR-44" target="U4qR48-MR9zNBadxlRmR-5">
          <mxGeometry width="50" height="50" relative="1" as="geometry">
            <mxPoint x="400" y="340" as="sourcePoint" />
            <mxPoint x="450" y="290" as="targetPoint" />
          </mxGeometry>
        </mxCell>
        <mxCell id="U4qR48-MR9zNBadxlRmR-48" value="1" style="edgeLabel;html=1;align=center;verticalAlign=middle;resizable=0;points=[];" vertex="1" connectable="0" parent="U4qR48-MR9zNBadxlRmR-45">
          <mxGeometry x="0.6487" y="2" relative="1" as="geometry">
            <mxPoint as="offset" />
          </mxGeometry>
        </mxCell>
        <mxCell id="U4qR48-MR9zNBadxlRmR-46" value="" style="endArrow=none;html=1;rounded=0;exitX=0.5;exitY=0;exitDx=0;exitDy=0;entryX=0.5;entryY=1;entryDx=0;entryDy=0;" edge="1" parent="1" source="U4qR48-MR9zNBadxlRmR-3" target="U4qR48-MR9zNBadxlRmR-44">
          <mxGeometry width="50" height="50" relative="1" as="geometry">
            <mxPoint x="400" y="340" as="sourcePoint" />
            <mxPoint x="450" y="290" as="targetPoint" />
          </mxGeometry>
        </mxCell>
        <mxCell id="U4qR48-MR9zNBadxlRmR-47" value="M" style="edgeLabel;html=1;align=center;verticalAlign=middle;resizable=0;points=[];" vertex="1" connectable="0" parent="U4qR48-MR9zNBadxlRmR-46">
          <mxGeometry x="-0.6" relative="1" as="geometry">
            <mxPoint x="-14" y="-4" as="offset" />
          </mxGeometry>
        </mxCell>
        <mxCell id="U4qR48-MR9zNBadxlRmR-49" value="work" style="rhombus;whiteSpace=wrap;html=1;" vertex="1" parent="1">
          <mxGeometry x="441" y="585" width="50" height="50" as="geometry" />
        </mxCell>
        <mxCell id="U4qR48-MR9zNBadxlRmR-50" value="" style="endArrow=none;html=1;rounded=0;exitX=1;exitY=0.5;exitDx=0;exitDy=0;entryX=0;entryY=0.5;entryDx=0;entryDy=0;" edge="1" parent="1" source="U4qR48-MR9zNBadxlRmR-49" target="U4qR48-MR9zNBadxlRmR-2">
          <mxGeometry width="50" height="50" relative="1" as="geometry">
            <mxPoint x="538" y="410" as="sourcePoint" />
            <mxPoint x="588" y="360" as="targetPoint" />
          </mxGeometry>
        </mxCell>
        <mxCell id="U4qR48-MR9zNBadxlRmR-52" value="M" style="edgeLabel;html=1;align=center;verticalAlign=middle;resizable=0;points=[];" vertex="1" connectable="0" parent="U4qR48-MR9zNBadxlRmR-50">
          <mxGeometry x="0.5267" y="3" relative="1" as="geometry">
            <mxPoint as="offset" />
          </mxGeometry>
        </mxCell>
        <mxCell id="U4qR48-MR9zNBadxlRmR-51" value="" style="endArrow=none;html=1;rounded=0;exitX=1;exitY=0.5;exitDx=0;exitDy=0;entryX=0;entryY=0.5;entryDx=0;entryDy=0;" edge="1" parent="1" source="U4qR48-MR9zNBadxlRmR-3" target="U4qR48-MR9zNBadxlRmR-49">
          <mxGeometry width="50" height="50" relative="1" as="geometry">
            <mxPoint x="400" y="340" as="sourcePoint" />
            <mxPoint x="450" y="290" as="targetPoint" />
          </mxGeometry>
        </mxCell>
        <mxCell id="U4qR48-MR9zNBadxlRmR-53" value="M" style="edgeLabel;html=1;align=center;verticalAlign=middle;resizable=0;points=[];" vertex="1" connectable="0" parent="U4qR48-MR9zNBadxlRmR-51">
          <mxGeometry x="-0.7462" y="2" relative="1" as="geometry">
            <mxPoint y="-1" as="offset" />
          </mxGeometry>
        </mxCell>
        <mxCell id="U4qR48-MR9zNBadxlRmR-54" value="&lt;p style=&quot;line-height: 70%;&quot;&gt;&lt;span style=&quot;font-family: Arial, sans-serif; position: relative; top: 0.5pt; font-size: 8px;&quot;&gt;&lt;font style=&quot;font-size: 8px;&quot;&gt;price&lt;br&gt;per passenger&lt;/font&gt;&lt;/span&gt;&lt;/p&gt;" style="ellipse;whiteSpace=wrap;html=1;" vertex="1" parent="1">
          <mxGeometry x="424" y="690" width="67" height="40" as="geometry" />
        </mxCell>
        <mxCell id="U4qR48-MR9zNBadxlRmR-55" value="&lt;p style=&quot;line-height: 60%;&quot;&gt;&lt;span style=&quot;font-family: Arial, sans-serif; position: relative; top: 0.5pt; font-size: 8px;&quot;&gt;&lt;font style=&quot;font-size: 8px;&quot;&gt;departure&lt;br&gt;date time&lt;/font&gt;&lt;/span&gt;&lt;/p&gt;" style="ellipse;whiteSpace=wrap;html=1;" vertex="1" parent="1">
          <mxGeometry x="368" y="650" width="50" height="35" as="geometry" />
        </mxCell>
        <mxCell id="U4qR48-MR9zNBadxlRmR-56" value="&lt;p style=&quot;line-height: 70%;&quot;&gt;&lt;span style=&quot;font-family: Arial, sans-serif; position: relative; top: 0.5pt; font-size: 8px;&quot;&gt;&lt;font style=&quot;font-size: 8px;&quot;&gt;arrival&lt;br&gt;date time&lt;/font&gt;&lt;/span&gt;&lt;/p&gt;" style="ellipse;whiteSpace=wrap;html=1;" vertex="1" parent="1">
          <mxGeometry x="398" y="520" width="70" height="40" as="geometry" />
        </mxCell>
        <mxCell id="U4qR48-MR9zNBadxlRmR-57" value="&lt;span style=&quot;font-family: Arial, sans-serif; position: relative; top: 0.5pt;&quot;&gt;&lt;font style=&quot;font-size: 12px;&quot;&gt;identification&lt;br/&gt;number&lt;/font&gt;&lt;/span&gt;&lt;hr&gt;" style="ellipse;whiteSpace=wrap;html=1;" vertex="1" parent="1">
          <mxGeometry x="708" y="530" width="90" height="50" as="geometry" />
        </mxCell>
        <mxCell id="U4qR48-MR9zNBadxlRmR-58" value="&lt;p style=&quot;line-height: 70%;&quot;&gt;&lt;span style=&quot;font-family: Arial, sans-serif; position: relative; top: 0.5pt;&quot;&gt;&lt;font style=&quot;font-size: 8px;&quot;&gt;the&lt;br&gt;time that aircraft spent in traveling the route&lt;/font&gt;&lt;/span&gt;&lt;/p&gt;" style="ellipse;whiteSpace=wrap;html=1;" vertex="1" parent="1">
          <mxGeometry x="508" y="670" width="80" height="60" as="geometry" />
        </mxCell>
        <mxCell id="U4qR48-MR9zNBadxlRmR-59" value="" style="endArrow=none;html=1;rounded=0;exitX=0.5;exitY=1;exitDx=0;exitDy=0;entryX=0;entryY=0;entryDx=0;entryDy=0;" edge="1" parent="1" source="U4qR48-MR9zNBadxlRmR-49" target="U4qR48-MR9zNBadxlRmR-58">
          <mxGeometry width="50" height="50" relative="1" as="geometry">
            <mxPoint x="518" y="440" as="sourcePoint" />
            <mxPoint x="568" y="390" as="targetPoint" />
          </mxGeometry>
        </mxCell>
        <mxCell id="U4qR48-MR9zNBadxlRmR-60" value="" style="endArrow=none;html=1;rounded=0;exitX=0.5;exitY=1;exitDx=0;exitDy=0;entryX=0.5;entryY=0;entryDx=0;entryDy=0;" edge="1" parent="1" source="U4qR48-MR9zNBadxlRmR-49" target="U4qR48-MR9zNBadxlRmR-54">
          <mxGeometry width="50" height="50" relative="1" as="geometry">
            <mxPoint x="518" y="440" as="sourcePoint" />
            <mxPoint x="568" y="390" as="targetPoint" />
          </mxGeometry>
        </mxCell>
        <mxCell id="U4qR48-MR9zNBadxlRmR-61" value="" style="endArrow=none;html=1;rounded=0;exitX=0.5;exitY=1;exitDx=0;exitDy=0;entryX=0.967;entryY=0.3;entryDx=0;entryDy=0;entryPerimeter=0;" edge="1" parent="1" source="U4qR48-MR9zNBadxlRmR-49" target="U4qR48-MR9zNBadxlRmR-55">
          <mxGeometry width="50" height="50" relative="1" as="geometry">
            <mxPoint x="518" y="440" as="sourcePoint" />
            <mxPoint x="568" y="390" as="targetPoint" />
          </mxGeometry>
        </mxCell>
        <mxCell id="U4qR48-MR9zNBadxlRmR-62" value="" style="endArrow=none;html=1;rounded=0;exitX=0.5;exitY=0;exitDx=0;exitDy=0;" edge="1" parent="1" source="U4qR48-MR9zNBadxlRmR-49" target="U4qR48-MR9zNBadxlRmR-38">
          <mxGeometry width="50" height="50" relative="1" as="geometry">
            <mxPoint x="518" y="440" as="sourcePoint" />
            <mxPoint x="568" y="390" as="targetPoint" />
          </mxGeometry>
        </mxCell>
        <mxCell id="U4qR48-MR9zNBadxlRmR-63" value="" style="endArrow=none;html=1;rounded=0;exitX=0.5;exitY=0;exitDx=0;exitDy=0;entryX=0.774;entryY=0.95;entryDx=0;entryDy=0;entryPerimeter=0;" edge="1" parent="1" source="U4qR48-MR9zNBadxlRmR-49" target="U4qR48-MR9zNBadxlRmR-56">
          <mxGeometry width="50" height="50" relative="1" as="geometry">
            <mxPoint x="518" y="440" as="sourcePoint" />
            <mxPoint x="568" y="390" as="targetPoint" />
          </mxGeometry>
        </mxCell>
        <mxCell id="U4qR48-MR9zNBadxlRmR-64" value="&lt;span style=&quot;font-family: Arial, sans-serif; position: relative; top: 0.5pt;&quot;&gt;&lt;font style=&quot;font-size: 12px;&quot;&gt;classification&lt;/font&gt;&lt;/span&gt;" style="ellipse;whiteSpace=wrap;html=1;" vertex="1" parent="1">
          <mxGeometry x="613" y="510" width="80" height="50" as="geometry" />
        </mxCell>
        <mxCell id="U4qR48-MR9zNBadxlRmR-65" value="&lt;span style=&quot;font-family: Arial, sans-serif; position: relative; top: 0.5pt;&quot;&gt;&lt;font style=&quot;font-size: 12px;&quot;&gt;distance&lt;/font&gt;&lt;/span&gt;" style="ellipse;whiteSpace=wrap;html=1;" vertex="1" parent="1">
          <mxGeometry x="623" y="660" width="70" height="40" as="geometry" />
        </mxCell>
        <mxCell id="U4qR48-MR9zNBadxlRmR-66" value="&lt;span style=&quot;font-family: Arial, sans-serif; position: relative; top: 0.5pt;&quot;&gt;&lt;font style=&quot;font-size: 12px;&quot;&gt;destination&lt;/font&gt;&lt;/span&gt;" style="ellipse;whiteSpace=wrap;html=1;" vertex="1" parent="1">
          <mxGeometry x="718" y="642.5" width="70" height="50" as="geometry" />
        </mxCell>
        <mxCell id="U4qR48-MR9zNBadxlRmR-67" value="&lt;span style=&quot;font-family: Arial, sans-serif; position: relative; top: 0.5pt;&quot;&gt;&lt;font style=&quot;font-size: 12px;&quot;&gt;origin&lt;/font&gt;&lt;/span&gt;" style="ellipse;whiteSpace=wrap;html=1;" vertex="1" parent="1">
          <mxGeometry x="728" y="590" width="60" height="40" as="geometry" />
        </mxCell>
        <mxCell id="U4qR48-MR9zNBadxlRmR-68" value="" style="endArrow=none;html=1;rounded=0;exitX=0.5;exitY=0;exitDx=0;exitDy=0;entryX=0.5;entryY=1;entryDx=0;entryDy=0;" edge="1" parent="1" source="U4qR48-MR9zNBadxlRmR-65" target="U4qR48-MR9zNBadxlRmR-2">
          <mxGeometry width="50" height="50" relative="1" as="geometry">
            <mxPoint x="518" y="440" as="sourcePoint" />
            <mxPoint x="568" y="390" as="targetPoint" />
          </mxGeometry>
        </mxCell>
        <mxCell id="U4qR48-MR9zNBadxlRmR-69" value="" style="endArrow=none;html=1;rounded=0;exitX=1;exitY=1;exitDx=0;exitDy=0;entryX=0;entryY=0;entryDx=0;entryDy=0;" edge="1" parent="1" source="U4qR48-MR9zNBadxlRmR-2" target="U4qR48-MR9zNBadxlRmR-66">
          <mxGeometry width="50" height="50" relative="1" as="geometry">
            <mxPoint x="518" y="440" as="sourcePoint" />
            <mxPoint x="568" y="390" as="targetPoint" />
          </mxGeometry>
        </mxCell>
        <mxCell id="U4qR48-MR9zNBadxlRmR-70" value="" style="endArrow=none;html=1;rounded=0;exitX=1;exitY=0.5;exitDx=0;exitDy=0;entryX=0;entryY=0.5;entryDx=0;entryDy=0;" edge="1" parent="1" source="U4qR48-MR9zNBadxlRmR-2" target="U4qR48-MR9zNBadxlRmR-67">
          <mxGeometry width="50" height="50" relative="1" as="geometry">
            <mxPoint x="518" y="440" as="sourcePoint" />
            <mxPoint x="568" y="390" as="targetPoint" />
          </mxGeometry>
        </mxCell>
        <mxCell id="U4qR48-MR9zNBadxlRmR-71" value="" style="endArrow=none;html=1;rounded=0;exitX=1;exitY=0;exitDx=0;exitDy=0;" edge="1" parent="1" source="U4qR48-MR9zNBadxlRmR-2" target="U4qR48-MR9zNBadxlRmR-57">
          <mxGeometry width="50" height="50" relative="1" as="geometry">
            <mxPoint x="518" y="440" as="sourcePoint" />
            <mxPoint x="568" y="390" as="targetPoint" />
          </mxGeometry>
        </mxCell>
        <mxCell id="U4qR48-MR9zNBadxlRmR-72" value="" style="endArrow=none;html=1;rounded=0;exitX=0.417;exitY=-0.008;exitDx=0;exitDy=0;exitPerimeter=0;entryX=0.5;entryY=1;entryDx=0;entryDy=0;" edge="1" parent="1" source="U4qR48-MR9zNBadxlRmR-2" target="U4qR48-MR9zNBadxlRmR-64">
          <mxGeometry width="50" height="50" relative="1" as="geometry">
            <mxPoint x="518" y="440" as="sourcePoint" />
            <mxPoint x="568" y="390" as="targetPoint" />
          </mxGeometry>
        </mxCell>
        <mxCell id="U4qR48-MR9zNBadxlRmR-73" value="own" style="rhombus;whiteSpace=wrap;html=1;" vertex="1" parent="1">
          <mxGeometry x="260" y="430" width="60" height="60" as="geometry" />
        </mxCell>
        <mxCell id="U4qR48-MR9zNBadxlRmR-74" value="" style="endArrow=none;html=1;rounded=0;entryX=0.5;entryY=1;entryDx=0;entryDy=0;exitX=1;exitY=0;exitDx=0;exitDy=0;" edge="1" parent="1" source="U4qR48-MR9zNBadxlRmR-3" target="U4qR48-MR9zNBadxlRmR-73">
          <mxGeometry width="50" height="50" relative="1" as="geometry">
            <mxPoint x="220" y="510" as="sourcePoint" />
            <mxPoint x="240" y="420" as="targetPoint" />
          </mxGeometry>
        </mxCell>
        <mxCell id="U4qR48-MR9zNBadxlRmR-76" value="1" style="edgeLabel;html=1;align=center;verticalAlign=middle;resizable=0;points=[];" vertex="1" connectable="0" parent="U4qR48-MR9zNBadxlRmR-74">
          <mxGeometry x="-0.7717" relative="1" as="geometry">
            <mxPoint as="offset" />
          </mxGeometry>
        </mxCell>
        <mxCell id="U4qR48-MR9zNBadxlRmR-77" value="&lt;span style=&quot;font-family: Arial, sans-serif; position: relative; top: 0.5pt;&quot;&gt;&lt;font style=&quot;font-size: 12px;&quot;&gt;Crew&lt;/font&gt;&lt;/span&gt;" style="rounded=0;whiteSpace=wrap;html=1;" vertex="1" parent="1">
          <mxGeometry x="385.5" y="410" width="80" height="40" as="geometry" />
        </mxCell>
        <mxCell id="U4qR48-MR9zNBadxlRmR-78" value="" style="endArrow=none;html=1;rounded=0;entryX=0.5;entryY=0;entryDx=0;entryDy=0;exitX=0;exitY=0.5;exitDx=0;exitDy=0;" edge="1" parent="1" source="U4qR48-MR9zNBadxlRmR-77" target="U4qR48-MR9zNBadxlRmR-73">
          <mxGeometry width="50" height="50" relative="1" as="geometry">
            <mxPoint x="360" y="350" as="sourcePoint" />
            <mxPoint x="420" y="350" as="targetPoint" />
          </mxGeometry>
        </mxCell>
        <mxCell id="U4qR48-MR9zNBadxlRmR-79" value="1" style="edgeLabel;html=1;align=center;verticalAlign=middle;resizable=0;points=[];" vertex="1" connectable="0" parent="U4qR48-MR9zNBadxlRmR-78">
          <mxGeometry x="-0.7717" relative="1" as="geometry">
            <mxPoint as="offset" />
          </mxGeometry>
        </mxCell>
        <mxCell id="U4qR48-MR9zNBadxlRmR-80" value="buy / sell" style="rhombus;whiteSpace=wrap;html=1;" vertex="1" parent="1">
          <mxGeometry x="295.5" y="230" width="65" height="65" as="geometry" />
        </mxCell>
        <mxCell id="U4qR48-MR9zNBadxlRmR-81" value="" style="endArrow=none;html=1;rounded=0;entryX=1;entryY=0.5;entryDx=0;entryDy=0;exitX=0;exitY=0.5;exitDx=0;exitDy=0;" edge="1" parent="1" source="U4qR48-MR9zNBadxlRmR-80" target="U4qR48-MR9zNBadxlRmR-5">
          <mxGeometry width="50" height="50" relative="1" as="geometry">
            <mxPoint x="310" y="295" as="sourcePoint" />
            <mxPoint x="240" y="305" as="targetPoint" />
          </mxGeometry>
        </mxCell>
        <mxCell id="U4qR48-MR9zNBadxlRmR-96" value="M" style="edgeLabel;html=1;align=center;verticalAlign=middle;resizable=0;points=[];" vertex="1" connectable="0" parent="U4qR48-MR9zNBadxlRmR-81">
          <mxGeometry x="0.5296" y="1" relative="1" as="geometry">
            <mxPoint as="offset" />
          </mxGeometry>
        </mxCell>
        <mxCell id="U4qR48-MR9zNBadxlRmR-84" value="&lt;span style=&quot;font-family: Arial, sans-serif; position: relative; top: 0.5pt;&quot;&gt;&lt;font style=&quot;font-size: 12px;&quot;&gt;transaction&lt;/font&gt;&lt;/span&gt;" style="rounded=0;whiteSpace=wrap;html=1;" vertex="1" parent="1">
          <mxGeometry x="425" y="242.5" width="80" height="40" as="geometry" />
        </mxCell>
        <mxCell id="U4qR48-MR9zNBadxlRmR-85" value="" style="endArrow=none;html=1;rounded=0;entryX=1;entryY=0.5;entryDx=0;entryDy=0;exitX=0;exitY=0.5;exitDx=0;exitDy=0;" edge="1" parent="1" source="U4qR48-MR9zNBadxlRmR-84" target="U4qR48-MR9zNBadxlRmR-80">
          <mxGeometry width="50" height="50" relative="1" as="geometry">
            <mxPoint x="424.5" y="294.5" as="sourcePoint" />
            <mxPoint x="338.5" y="297.5" as="targetPoint" />
          </mxGeometry>
        </mxCell>
        <mxCell id="U4qR48-MR9zNBadxlRmR-94" value="M" style="edgeLabel;html=1;align=center;verticalAlign=middle;resizable=0;points=[];" vertex="1" connectable="0" parent="U4qR48-MR9zNBadxlRmR-85">
          <mxGeometry x="-0.3798" y="1" relative="1" as="geometry">
            <mxPoint as="offset" />
          </mxGeometry>
        </mxCell>
        <mxCell id="U4qR48-MR9zNBadxlRmR-86" value="&lt;span style=&quot;font-family: Arial, sans-serif; position: relative; top: 0.5pt;&quot;&gt;&lt;font style=&quot;font-size: 12px;&quot;&gt;description&lt;/font&gt;&lt;/span&gt;" style="ellipse;whiteSpace=wrap;html=1;" vertex="1" parent="1">
          <mxGeometry x="441" y="320" width="80" height="50" as="geometry" />
        </mxCell>
        <mxCell id="U4qR48-MR9zNBadxlRmR-87" value="&lt;span style=&quot;font-family: Arial, sans-serif; position: relative; top: 0.5pt;&quot;&gt;&lt;font style=&quot;font-size: 12px;&quot;&gt;date&lt;/font&gt;&lt;/span&gt;" style="ellipse;whiteSpace=wrap;html=1;" vertex="1" parent="1">
          <mxGeometry x="468" y="145" width="60" height="40" as="geometry" />
        </mxCell>
        <mxCell id="U4qR48-MR9zNBadxlRmR-88" value="&lt;span style=&quot;font-family: Arial, sans-serif; position: relative; top: 0.5pt;&quot;&gt;&lt;font style=&quot;font-size: 12px;&quot;&gt;identification&lt;br/&gt;number&lt;/font&gt;&lt;/span&gt;&lt;hr&gt;" style="ellipse;whiteSpace=wrap;html=1;" vertex="1" parent="1">
          <mxGeometry x="360" y="140" width="90" height="60" as="geometry" />
        </mxCell>
        <mxCell id="U4qR48-MR9zNBadxlRmR-89" value="&lt;span style=&quot;font-family: Arial, sans-serif; position: relative; top: 0.5pt;&quot;&gt;&lt;font style=&quot;font-size: 12px;&quot;&gt;amount&lt;br/&gt;of money paid/received&lt;/font&gt;&lt;/span&gt;" style="ellipse;whiteSpace=wrap;html=1;" vertex="1" parent="1">
          <mxGeometry x="325" y="315" width="100" height="60" as="geometry" />
        </mxCell>
        <mxCell id="U4qR48-MR9zNBadxlRmR-90" value="" style="endArrow=none;html=1;rounded=0;exitX=0.5;exitY=0;exitDx=0;exitDy=0;entryX=0.408;entryY=0.971;entryDx=0;entryDy=0;entryPerimeter=0;" edge="1" parent="1" source="U4qR48-MR9zNBadxlRmR-84" target="U4qR48-MR9zNBadxlRmR-87">
          <mxGeometry width="50" height="50" relative="1" as="geometry">
            <mxPoint x="380" y="280" as="sourcePoint" />
            <mxPoint x="430" y="230" as="targetPoint" />
          </mxGeometry>
        </mxCell>
        <mxCell id="U4qR48-MR9zNBadxlRmR-91" value="" style="endArrow=none;html=1;rounded=0;exitX=0.5;exitY=0;exitDx=0;exitDy=0;entryX=0.574;entryY=1.036;entryDx=0;entryDy=0;entryPerimeter=0;" edge="1" parent="1" source="U4qR48-MR9zNBadxlRmR-84" target="U4qR48-MR9zNBadxlRmR-88">
          <mxGeometry width="50" height="50" relative="1" as="geometry">
            <mxPoint x="380" y="280" as="sourcePoint" />
            <mxPoint x="430" y="230" as="targetPoint" />
          </mxGeometry>
        </mxCell>
        <mxCell id="U4qR48-MR9zNBadxlRmR-92" value="" style="endArrow=none;html=1;rounded=0;exitX=0.5;exitY=0;exitDx=0;exitDy=0;entryX=0.5;entryY=1;entryDx=0;entryDy=0;" edge="1" parent="1" source="U4qR48-MR9zNBadxlRmR-86" target="U4qR48-MR9zNBadxlRmR-84">
          <mxGeometry width="50" height="50" relative="1" as="geometry">
            <mxPoint x="380" y="280" as="sourcePoint" />
            <mxPoint x="430" y="230" as="targetPoint" />
          </mxGeometry>
        </mxCell>
        <mxCell id="U4qR48-MR9zNBadxlRmR-93" value="" style="endArrow=none;html=1;rounded=0;exitX=0.5;exitY=0;exitDx=0;exitDy=0;entryX=0;entryY=1;entryDx=0;entryDy=0;" edge="1" parent="1" source="U4qR48-MR9zNBadxlRmR-89" target="U4qR48-MR9zNBadxlRmR-84">
          <mxGeometry width="50" height="50" relative="1" as="geometry">
            <mxPoint x="380" y="280" as="sourcePoint" />
            <mxPoint x="430" y="230" as="targetPoint" />
          </mxGeometry>
        </mxCell>
      </root>
    </mxGraphModel>
  </diagram>
</mxfile>
